<svg width="183" height="50" viewBox="0 0 183 50" fill="none" xmlns="http://www.w3.org/2000/svg">
<path fill-rule="evenodd" clip-rule="evenodd" d="M7.54772 0.675477L40.9293 21.0448H40.9142C42.2746 21.8753 43.1081 23.3504 43.1174 24.9439C43.1266 26.5374 42.3102 28.0221 40.9595 28.8682L22.2191 40.613C20.8244 41.559 19.0241 41.6674 17.5259 40.8956C16.0278 40.1237 15.0713 38.5951 15.0326 36.9107C14.9938 35.2262 15.879 33.6553 17.3401 32.8155L21.0903 30.4682L29.782 25.0222L26.1718 22.8192L26.1136 22.7826L15.1947 16.1199L9.75348 12.7993V28.1274C9.78957 29.7949 8.92038 31.3513 7.48162 32.1956C6.04287 33.0399 4.25977 33.0399 2.82101 32.1956C1.38225 31.3513 0.513064 29.7949 0.549151 28.1274V4.60119C0.547846 2.93716 1.44606 1.4023 2.89768 0.588039C4.34931 -0.226221 6.12775 -0.19278 7.54772 0.675477ZM0.828082 43.3277C1.57512 41.5242 3.33546 40.3482 5.2881 40.3482C7.9523 40.3505 10.1118 42.5084 10.1154 45.1719C10.1162 47.1239 8.94066 48.8843 7.13691 49.6319C5.33315 50.3795 3.25651 49.9672 1.87547 48.5872C0.494435 47.2071 0.0810396 45.1313 0.828082 43.3277ZM102.351 24.9985C102.377 18.4137 107.735 13.0953 114.321 13.1159C120.908 13.1365 126.233 18.4882 126.218 25.0731C126.203 31.6579 120.854 36.9853 114.267 36.9758C111.096 36.9724 108.058 35.7074 105.822 33.4601C103.586 31.2127 102.337 28.1681 102.351 24.9985ZM121.806 24.9985C121.762 20.8568 118.377 17.5299 114.234 17.5564C110.091 17.5828 106.749 20.9525 106.758 25.0944C106.767 29.2362 110.124 32.5915 114.267 32.6001C116.275 32.5927 118.198 31.7873 119.612 30.3614C121.026 28.9355 121.814 27.0061 121.804 24.9985H121.806ZM60.3202 13.3526C59.1788 13.3526 58.2518 14.2745 58.2459 15.4156V34.4563C58.2459 35.6682 59.2286 36.6506 60.4409 36.6506H60.4947C61.7061 36.6494 62.6876 35.6673 62.6876 34.4563V30.0245H67.5988C72.4563 30.0245 76.0342 26.3206 76.0342 21.6886C76.0342 17.0565 72.4584 13.3526 67.6333 13.3526H60.3202ZM62.6876 25.8942V17.4614H67.3145C69.8391 17.4614 71.5623 19.3456 71.5623 21.6778C71.5623 24.01 69.8391 25.8942 67.3145 25.8942H62.6876ZM82.6169 13.3526C81.4751 13.3526 80.5475 14.2742 80.5404 15.4156V34.4563C80.5404 35.6682 81.5231 36.6506 82.7354 36.6506H82.7892C84.0006 36.6494 84.9821 35.6673 84.9821 34.4563V29.6477H90.238L93.2365 35.4835C93.6118 36.2142 94.3642 36.6738 95.1859 36.6743C95.9618 36.6753 96.6805 36.2662 97.0757 35.5986C97.4709 34.931 97.4837 34.1043 97.1095 33.4248L94.2941 28.3061C96.8294 26.9322 98.1714 24.3136 98.1714 21.5357C98.1714 16.6431 94.9856 13.3526 89.385 13.3526H82.6169ZM84.9821 25.5432V17.4937H88.9951C92.3296 17.4937 93.734 18.9946 93.734 21.3268C93.734 23.659 92.6053 25.5432 88.9951 25.5432H84.9821ZM136.169 14.2528C135.755 13.6853 135.094 13.3505 134.392 13.3527C132.582 13.3527 131.112 14.8161 131.105 16.6259V34.4563C131.105 35.0383 131.336 35.5964 131.748 36.008C132.159 36.4195 132.718 36.6507 133.3 36.6507H133.354C134.565 36.6495 135.547 35.6674 135.547 34.4563V20.5882L141.016 27.996C141.359 28.461 141.903 28.7355 142.481 28.7355C143.059 28.7355 143.602 28.461 143.945 27.996L149.507 20.4956V34.4563C149.507 35.6674 150.488 36.6495 151.7 36.6507H151.754C152.966 36.6507 153.949 35.6682 153.949 34.4563V16.1392C153.949 15.4002 153.655 14.6914 153.132 14.1688C152.61 13.6463 151.901 13.3527 151.161 13.3527C150.285 13.3478 149.458 13.7554 148.928 14.4531L142.511 23.0431L136.169 14.2528ZM158.843 24.9984C158.87 18.4154 164.227 13.0991 170.812 13.1201C177.397 13.1411 182.72 18.4913 182.706 25.0744C182.691 31.6575 177.344 36.984 170.759 36.9758C167.589 36.9724 164.55 35.7073 162.314 33.46C160.078 31.2127 158.829 28.168 158.843 24.9984ZM178.298 24.9984C178.255 20.8567 174.87 17.5299 170.727 17.5563C166.584 17.5827 163.242 20.9524 163.251 25.0943C163.259 29.2362 166.616 32.5915 170.759 32.6C172.768 32.5926 174.691 31.7873 176.105 30.3614C177.519 28.9356 178.308 27.0062 178.298 24.9984Z" fill="white"/>
</svg>
