<svg width="24" height="24" viewBox="0 0 24 24" fill="none" xmlns="http://www.w3.org/2000/svg">
<path d="M23.8332 4.5998L18.3515 0L16.8143 1.82324L22.2959 6.42304L23.8332 4.5998ZM7.00695 1.82324L5.48163 0L0 4.58788L1.53724 6.41112L7.00695 1.82324ZM12.5124 7.31678H10.7249V14.4667L16.3853 17.863L17.279 16.3972L12.5124 13.573V7.31678ZM11.9166 2.55015C5.99404 2.55015 1.19166 7.35253 1.19166 13.2751C1.19166 19.1976 5.98213 24 11.9166 24C17.8391 24 22.6415 19.1976 22.6415 13.2751C22.6415 7.35253 17.8391 2.55015 11.9166 2.55015ZM11.9166 21.6167C7.30487 21.6167 3.57498 17.8868 3.57498 13.2751C3.57498 8.66336 7.30487 4.93347 11.9166 4.93347C16.5283 4.93347 20.2582 8.66336 20.2582 13.2751C20.2582 17.8868 16.5283 21.6167 11.9166 21.6167Z" fill="#3CF7A2"/>
</svg>
