<svg width="968" height="498" viewBox="0 0 968 498" fill="none" xmlns="http://www.w3.org/2000/svg">
<g filter="url(#filter0_d)">
<rect x="435" y="16" width="80" height="80" rx="40" fill="#00759D"/>
<path fill-rule="evenodd" clip-rule="evenodd" d="M452.777 55.9994C452.777 52.8373 453.469 49.836 454.701 47.1251L465.301 75.625C457.889 72.0907 452.777 64.6312 452.777 55.9994ZM490.001 54.8995C490.001 56.7654 489.269 58.9312 488.311 61.9488L486.093 69.2162L478.062 45.7757C479.399 45.7062 480.605 45.5672 480.605 45.5672C481.802 45.4295 481.662 43.7013 480.463 43.7708C480.463 43.7708 476.864 44.0475 474.541 44.0475C472.357 44.0475 468.688 43.7708 468.688 43.7708C467.489 43.7013 467.349 45.4977 468.546 45.5672C468.546 45.5672 469.681 45.7062 470.878 45.7757L474.339 55.0835L469.475 69.3961L461.383 45.7757C462.722 45.7062 463.927 45.5672 463.927 45.5672C465.124 45.4295 464.982 43.7013 463.785 43.7708C463.785 43.7708 460.186 44.0475 457.863 44.0475C457.446 44.0475 456.954 44.0379 456.432 44.0216C460.406 38.1021 467.235 34.1931 474.999 34.1931C480.784 34.1931 486.052 36.363 490.005 39.9176C489.909 39.9122 489.816 39.8999 489.718 39.8999C487.534 39.8999 485.986 41.7658 485.986 43.7708C485.986 45.5672 487.043 47.0883 488.169 48.886C489.013 50.3376 490.001 52.2035 490.001 54.8995ZM494.499 45.5376C496.234 48.6438 497.222 52.208 497.222 55.9998C497.222 64.0441 492.779 71.0689 486.171 74.8485L492.959 55.5909C494.227 52.4793 494.649 49.9918 494.649 47.7797C494.649 46.9769 494.595 46.2327 494.499 45.5376ZM475.389 57.907L482.22 76.2718C482.265 76.3795 482.32 76.4776 482.379 76.5717C480.069 77.369 477.587 77.8079 474.999 77.8079C472.819 77.8079 470.713 77.4944 468.721 76.9192L475.389 57.907Z" fill="white"/>
</g>
<g filter="url(#filter1_d)">
<rect x="24" y="386" width="80" height="80" rx="40" fill="#81BF37"/>
<path fill-rule="evenodd" clip-rule="evenodd" d="M73.0902 452.315L74.8014 407.002C75.6642 407.879 76.642 408.872 76.642 408.872C76.642 408.872 80.6679 409.177 80.8579 409.194C81.0494 409.21 81.2803 409.359 81.3163 409.629C81.3523 409.899 87.0352 449.228 87.0352 449.228L73.0902 452.315ZM70.8763 452.805L70.8445 452.812L40.9648 447.083C40.9648 447.083 44.7993 416.73 44.945 415.659C45.1365 414.246 45.1824 414.199 46.6493 413.728C46.8867 413.651 48.7516 413.06 51.3777 412.227C52.3895 407.834 55.6182 399.188 62.375 399.188C63.2575 399.188 64.2792 399.673 65.1043 400.79C65.1862 400.785 65.2697 400.781 65.3499 400.781C68.2495 400.781 69.8982 403.31 70.833 406.062C71.7875 405.76 72.3639 405.577 72.3982 405.567C72.4627 405.548 72.5554 405.526 72.6622 405.512L70.8763 452.805ZM64.8833 407.647C64.8833 405.584 64.6115 404.054 64.1973 402.988C62.5486 403.712 60.6641 405.631 59.6589 409.602C61.45 409.034 63.2362 408.468 64.8817 407.947C64.8817 407.85 64.8833 407.752 64.8833 407.647ZM62.1884 401.043C57.3356 401.043 54.6096 407.565 53.4619 411.566C54.757 411.156 56.1568 410.712 57.5894 410.258C58.5701 405.012 60.8901 402.385 63.0561 401.343C62.7745 401.145 62.4815 401.043 62.1884 401.043ZM63.3525 424.428L65.3499 418.35C65.3499 418.35 63.9992 417.549 61.2683 417.549C54.179 417.549 50.6671 422.395 50.6671 427.403C50.6671 433.353 56.4679 433.516 56.4679 437.137C56.4679 438.012 55.8621 439.21 54.3771 439.21C52.1014 439.21 49.4048 436.84 49.4048 436.84L48.0312 441.484C48.0312 441.484 50.654 444.752 55.7835 444.752C60.0584 444.752 63.2281 441.457 63.2281 436.343C63.2281 429.841 56.1584 428.777 56.1584 426C56.1584 425.492 56.3173 423.473 59.4608 423.473C61.6039 423.473 63.3525 424.428 63.3525 424.428ZM66.6532 407.385C67.5782 407.092 68.4312 406.822 69.1811 406.584C68.5409 404.582 67.5455 402.841 66.0507 402.65C66.4223 403.741 66.6548 405.118 66.6548 406.827C66.6548 407.023 66.6532 407.203 66.6532 407.385Z" fill="white"/>
</g>
<g filter="url(#filter2_d)">
<rect x="235" y="96" width="80" height="80" rx="40" fill="#1877F2"/>
<path d="M284.505 138.161L285.591 130.976H278.826V126.316C278.826 124.355 279.77 122.433 282.799 122.433H285.877V116.316C285.877 116.316 283.085 115.831 280.417 115.831C274.844 115.831 271.204 119.267 271.204 125.5V130.976H265.012V138.161H271.204V155.831H278.826V138.161H284.505Z" fill="white"/>
</g>
<g filter="url(#filter3_d)">
<rect x="864" y="386" width="80" height="80" rx="40" fill="white"/>
<path fill-rule="evenodd" clip-rule="evenodd" d="M888.827 426C888.827 424.3 889.115 422.671 889.628 421.142L880.641 414.407C878.889 417.897 877.902 421.83 877.902 426C877.902 430.167 878.888 434.097 880.637 437.584L889.62 430.836C889.111 429.315 888.827 427.691 888.827 426Z" fill="#FBBC05"/>
<path fill-rule="evenodd" clip-rule="evenodd" d="M904.605 410.537C908.368 410.537 911.766 411.845 914.437 413.987L922.205 406.374C917.472 402.33 911.402 399.832 904.605 399.832C894.052 399.832 884.982 405.754 880.639 414.408L889.626 421.142C891.697 414.974 897.6 410.537 904.605 410.537Z" fill="#EA4335"/>
<path fill-rule="evenodd" clip-rule="evenodd" d="M904.605 441.463C897.6 441.463 891.697 437.027 889.626 430.858L880.639 437.592C884.982 446.246 894.052 452.169 904.605 452.169C911.118 452.169 917.337 449.899 922.004 445.647L913.473 439.175C911.066 440.663 908.035 441.463 904.605 441.463Z" fill="#34A853"/>
<path fill-rule="evenodd" clip-rule="evenodd" d="M930.094 426C930.094 424.454 929.851 422.789 929.487 421.242H904.604V431.353H918.927C918.211 434.8 916.261 437.45 913.472 439.175L922.003 445.647C926.905 441.181 930.094 434.53 930.094 426Z" fill="#4285F4"/>
</g>
<g filter="url(#filter4_d)">
<rect x="635" y="96" width="80" height="80" rx="40" fill="white"/>
<path d="M695 116.374H655V155.626H695V116.374Z" fill="#ECEFF1"/>
<path d="M675.004 140.128L695.004 155.626V125.029L675.004 140.128Z" fill="#CFD8DC"/>
<path d="M696.665 116.374H694.999L674.999 131.872L654.999 116.374H653.332C650.572 116.374 648.332 118.572 648.332 121.28V150.72C648.332 153.428 650.572 155.626 653.332 155.626H654.999V125.029L674.999 140.125L694.999 125.026V155.626H696.665C699.425 155.626 701.665 153.428 701.665 150.72V121.28C701.665 118.572 699.425 116.374 696.665 116.374Z" fill="#F44336"/>
</g>
<g filter="url(#filter5_d)">
<rect x="95" y="216" width="80" height="80" rx="40" fill="white"/>
<path fill-rule="evenodd" clip-rule="evenodd" d="M129.492 262.836L129.49 248.027L143.9 255.457L129.492 262.836ZM161.132 245.461C161.132 245.461 160.61 241.829 159.012 240.229C156.984 238.129 154.71 238.119 153.669 237.998C146.205 237.464 135.01 237.464 135.01 237.464H134.987C134.987 237.464 123.792 237.464 116.329 237.998C115.285 238.119 113.014 238.129 110.984 240.229C109.385 241.829 108.865 245.461 108.865 245.461C108.865 245.461 108.332 249.727 108.332 253.991V257.99C108.332 262.256 108.865 266.521 108.865 266.521C108.865 266.521 109.385 270.153 110.984 271.752C113.014 273.852 115.679 273.786 116.865 274.005C121.132 274.411 134.999 274.536 134.999 274.536C134.999 274.536 146.205 274.519 153.669 273.986C154.71 273.862 156.984 273.852 159.012 271.752C160.61 270.153 161.132 266.521 161.132 266.521C161.132 266.521 161.665 262.256 161.665 257.99V253.991C161.665 249.727 161.132 245.461 161.132 245.461Z" fill="#FF0002"/>
</g>
<g filter="url(#filter6_d)">
<rect x="775" y="216" width="80" height="80" rx="40" fill="white"/>
<path d="M832.138 263.067C830.737 261.317 829.336 259.836 829.336 256.47V245.293C829.336 240.581 829.336 236.406 825.832 233.175C823.03 230.616 818.406 229.674 814.762 229.674C807.055 229.674 800.329 232.636 798.648 240.985C798.508 241.927 799.208 242.331 799.769 242.466L806.915 243.274C807.616 243.274 808.036 242.6 808.176 241.927C808.737 239.099 811.119 237.753 813.922 237.753C815.463 237.753 818.406 238.561 818.406 241.792V245.832C813.922 245.832 809.157 245.832 805.234 247.448C800.61 249.333 797.387 253.238 797.387 259.028C797.387 266.434 802.151 270.069 808.317 270.069C813.501 270.069 816.584 268.858 820.648 264.953C821.909 266.838 822.469 267.915 824.851 269.935C825.412 270.204 826.113 270.204 826.533 269.8C827.934 268.588 830.597 266.299 832.138 265.087C832.839 264.549 832.699 263.741 832.138 263.067ZM818.266 252.699C818.266 255.392 818.125 261.99 811.259 261.99C807.055 261.99 807.055 257.951 807.055 257.951C807.055 251.891 812.941 251.218 818.266 251.218V252.699Z" fill="#37474F"/>
<path d="M836.887 275.593C831.001 279.768 822.174 282.326 815.027 282.326C804.798 282.326 795.69 278.421 788.683 272.362C788.123 271.823 788.683 271.284 789.244 271.554C796.811 275.728 805.358 278.152 814.887 278.152C821.333 278.152 829.46 276.805 836.046 274.112C837.027 273.843 837.868 274.92 836.887 275.593ZM838.989 272.766C838.288 271.823 834.084 272.362 832.263 272.496C831.702 272.496 831.562 272.092 832.123 271.688C835.345 269.399 840.81 270.073 841.371 270.881C841.931 271.688 841.231 276.94 838.148 279.364C837.728 279.768 837.167 279.498 837.447 279.094C838.148 277.478 839.689 273.708 838.989 272.766Z" fill="#FFB300"/>
</g>
<defs>
<filter id="filter0_d" x="411" y="0" width="128" height="128" filterUnits="userSpaceOnUse" color-interpolation-filters="sRGB">
<feFlood flood-opacity="0" result="BackgroundImageFix"/>
<feColorMatrix in="SourceAlpha" type="matrix" values="0 0 0 0 0 0 0 0 0 0 0 0 0 0 0 0 0 0 127 0" result="hardAlpha"/>
<feOffset dy="8"/>
<feGaussianBlur stdDeviation="12"/>
<feColorMatrix type="matrix" values="0 0 0 0 0.203922 0 0 0 0 0.2 0 0 0 0 0.243137 0 0 0 0.1 0"/>
<feBlend mode="normal" in2="BackgroundImageFix" result="effect1_dropShadow"/>
<feBlend mode="normal" in="SourceGraphic" in2="effect1_dropShadow" result="shape"/>
</filter>
<filter id="filter1_d" x="0" y="370" width="128" height="128" filterUnits="userSpaceOnUse" color-interpolation-filters="sRGB">
<feFlood flood-opacity="0" result="BackgroundImageFix"/>
<feColorMatrix in="SourceAlpha" type="matrix" values="0 0 0 0 0 0 0 0 0 0 0 0 0 0 0 0 0 0 127 0" result="hardAlpha"/>
<feOffset dy="8"/>
<feGaussianBlur stdDeviation="12"/>
<feColorMatrix type="matrix" values="0 0 0 0 0.203922 0 0 0 0 0.2 0 0 0 0 0.243137 0 0 0 0.1 0"/>
<feBlend mode="normal" in2="BackgroundImageFix" result="effect1_dropShadow"/>
<feBlend mode="normal" in="SourceGraphic" in2="effect1_dropShadow" result="shape"/>
</filter>
<filter id="filter2_d" x="211" y="80" width="128" height="128" filterUnits="userSpaceOnUse" color-interpolation-filters="sRGB">
<feFlood flood-opacity="0" result="BackgroundImageFix"/>
<feColorMatrix in="SourceAlpha" type="matrix" values="0 0 0 0 0 0 0 0 0 0 0 0 0 0 0 0 0 0 127 0" result="hardAlpha"/>
<feOffset dy="8"/>
<feGaussianBlur stdDeviation="12"/>
<feColorMatrix type="matrix" values="0 0 0 0 0.203922 0 0 0 0 0.2 0 0 0 0 0.243137 0 0 0 0.1 0"/>
<feBlend mode="normal" in2="BackgroundImageFix" result="effect1_dropShadow"/>
<feBlend mode="normal" in="SourceGraphic" in2="effect1_dropShadow" result="shape"/>
</filter>
<filter id="filter3_d" x="840" y="370" width="128" height="128" filterUnits="userSpaceOnUse" color-interpolation-filters="sRGB">
<feFlood flood-opacity="0" result="BackgroundImageFix"/>
<feColorMatrix in="SourceAlpha" type="matrix" values="0 0 0 0 0 0 0 0 0 0 0 0 0 0 0 0 0 0 127 0" result="hardAlpha"/>
<feOffset dy="8"/>
<feGaussianBlur stdDeviation="12"/>
<feColorMatrix type="matrix" values="0 0 0 0 0.203922 0 0 0 0 0.2 0 0 0 0 0.243137 0 0 0 0.1 0"/>
<feBlend mode="normal" in2="BackgroundImageFix" result="effect1_dropShadow"/>
<feBlend mode="normal" in="SourceGraphic" in2="effect1_dropShadow" result="shape"/>
</filter>
<filter id="filter4_d" x="611" y="80" width="128" height="128" filterUnits="userSpaceOnUse" color-interpolation-filters="sRGB">
<feFlood flood-opacity="0" result="BackgroundImageFix"/>
<feColorMatrix in="SourceAlpha" type="matrix" values="0 0 0 0 0 0 0 0 0 0 0 0 0 0 0 0 0 0 127 0" result="hardAlpha"/>
<feOffset dy="8"/>
<feGaussianBlur stdDeviation="12"/>
<feColorMatrix type="matrix" values="0 0 0 0 0.203922 0 0 0 0 0.2 0 0 0 0 0.243137 0 0 0 0.1 0"/>
<feBlend mode="normal" in2="BackgroundImageFix" result="effect1_dropShadow"/>
<feBlend mode="normal" in="SourceGraphic" in2="effect1_dropShadow" result="shape"/>
</filter>
<filter id="filter5_d" x="71" y="200" width="128" height="128" filterUnits="userSpaceOnUse" color-interpolation-filters="sRGB">
<feFlood flood-opacity="0" result="BackgroundImageFix"/>
<feColorMatrix in="SourceAlpha" type="matrix" values="0 0 0 0 0 0 0 0 0 0 0 0 0 0 0 0 0 0 127 0" result="hardAlpha"/>
<feOffset dy="8"/>
<feGaussianBlur stdDeviation="12"/>
<feColorMatrix type="matrix" values="0 0 0 0 0.203922 0 0 0 0 0.2 0 0 0 0 0.243137 0 0 0 0.1 0"/>
<feBlend mode="normal" in2="BackgroundImageFix" result="effect1_dropShadow"/>
<feBlend mode="normal" in="SourceGraphic" in2="effect1_dropShadow" result="shape"/>
</filter>
<filter id="filter6_d" x="751" y="200" width="128" height="128" filterUnits="userSpaceOnUse" color-interpolation-filters="sRGB">
<feFlood flood-opacity="0" result="BackgroundImageFix"/>
<feColorMatrix in="SourceAlpha" type="matrix" values="0 0 0 0 0 0 0 0 0 0 0 0 0 0 0 0 0 0 127 0" result="hardAlpha"/>
<feOffset dy="8"/>
<feGaussianBlur stdDeviation="12"/>
<feColorMatrix type="matrix" values="0 0 0 0 0.203922 0 0 0 0 0.2 0 0 0 0 0.243137 0 0 0 0.1 0"/>
<feBlend mode="normal" in2="BackgroundImageFix" result="effect1_dropShadow"/>
<feBlend mode="normal" in="SourceGraphic" in2="effect1_dropShadow" result="shape"/>
</filter>
</defs>
</svg>
