<svg width="32" height="32" viewBox="0 0 32 32" fill="none" xmlns="http://www.w3.org/2000/svg">
<path d="M18.6907 9.51216V9.50928H19.4409L19.7151 9.56403C19.8978 9.59957 20.0637 9.64615 20.2128 9.70378C20.3619 9.76141 20.5062 9.82865 20.6456 9.90548C20.7851 9.98232 20.9116 10.0606 21.0251 10.1403C21.1376 10.2191 21.2386 10.3027 21.3281 10.391C21.4165 10.4803 21.5546 10.5034 21.7421 10.4602C21.9297 10.4169 22.1317 10.3569 22.3481 10.2801C22.5645 10.2032 22.7785 10.1168 22.9901 10.0207C23.2017 9.92469 23.3306 9.8637 23.3768 9.83777C23.422 9.81088 23.446 9.79648 23.4489 9.79455L23.4518 9.79022L23.4662 9.78302L23.4806 9.77582L23.495 9.76861L23.5095 9.76141L23.5124 9.75709L23.5167 9.7542L23.521 9.75132L23.5239 9.747L23.5383 9.74268L23.5528 9.7398L23.5499 9.76141L23.5455 9.78302L23.5383 9.80463L23.5311 9.82624L23.5239 9.84065L23.5167 9.85506L23.5095 9.87667C23.5047 9.89108 23.4999 9.91028 23.495 9.9343C23.4902 9.95832 23.4445 10.0544 23.358 10.2224C23.2714 10.3905 23.1632 10.561 23.0334 10.7339C22.9035 10.9068 22.7871 11.0374 22.6842 11.1258C22.5804 11.2151 22.5116 11.2775 22.4779 11.3131C22.4442 11.3496 22.4034 11.3832 22.3553 11.4139L22.2831 11.4615L22.2687 11.4687L22.2543 11.4759L22.2514 11.4802L22.2471 11.4831L22.2427 11.486L22.2399 11.4903L22.2254 11.4975L22.211 11.5047L22.2081 11.509L22.2038 11.5119L22.1995 11.5148L22.1966 11.5191L22.1937 11.5234L22.1894 11.5263L22.185 11.5292L22.1821 11.5335H22.2543L22.6583 11.4471C22.9276 11.3895 23.1849 11.3198 23.4301 11.2382L23.8197 11.1085L23.8629 11.0941L23.8846 11.0869L23.899 11.0797L23.9134 11.0725L23.9279 11.0653L23.9423 11.0581L23.9711 11.0538L24 11.0509V11.0797L23.9928 11.0826L23.9856 11.0869L23.9827 11.0912L23.9784 11.0941L23.974 11.097L23.9711 11.1013L23.9683 11.1056L23.9639 11.1085L23.9596 11.1114L23.9567 11.1157L23.9538 11.12L23.9495 11.1229L23.9423 11.1373L23.9351 11.1517L23.9307 11.1546C23.9288 11.1575 23.8678 11.2391 23.7475 11.3995C23.6273 11.5609 23.5624 11.6425 23.5528 11.6445C23.5431 11.6473 23.5297 11.6618 23.5124 11.6877C23.496 11.7146 23.394 11.8217 23.2065 12.009C23.0189 12.1963 22.8352 12.3629 22.6554 12.5089C22.4746 12.6559 22.3832 12.8364 22.3813 13.0506C22.3784 13.2639 22.3673 13.505 22.3481 13.7739C22.3288 14.0428 22.2928 14.3334 22.2399 14.6455C22.187 14.9577 22.1052 15.3107 21.9946 15.7045C21.884 16.0983 21.7493 16.4825 21.5906 16.8571C21.4319 17.2317 21.266 17.5679 21.0929 17.8656C20.9197 18.1634 20.761 18.4155 20.6168 18.622C20.4725 18.8285 20.3258 19.023 20.1767 19.2055C20.0277 19.388 19.8391 19.5936 19.6112 19.8221C19.3823 20.0498 19.2572 20.1747 19.2361 20.1967C19.214 20.2179 19.1197 20.2966 18.9533 20.433C18.7879 20.5704 18.6099 20.7077 18.4195 20.8451C18.23 20.9815 18.0559 21.0953 17.8972 21.1865C17.7385 21.2778 17.5471 21.382 17.323 21.4992C17.0999 21.6173 16.8584 21.7268 16.5987 21.8277C16.339 21.9285 16.0649 22.0222 15.7764 22.1086C15.4878 22.1951 15.2089 22.2623 14.9396 22.3103C14.6703 22.3583 14.3649 22.3992 14.0234 22.4328L13.5113 22.4832V22.4904H12.5735V22.4832L12.4509 22.476C12.3691 22.4712 12.3018 22.4664 12.2489 22.4616C12.196 22.4568 11.9964 22.4304 11.6501 22.3824C11.3039 22.3343 11.0322 22.2863 10.835 22.2383C10.6378 22.1903 10.3445 22.099 9.95491 21.9645C9.56537 21.8301 9.2321 21.6942 8.95509 21.5568C8.67905 21.4204 8.50593 21.334 8.43571 21.2975C8.36646 21.2619 8.28855 21.2178 8.20198 21.1649L8.07214 21.0857L8.06927 21.0814L8.06492 21.0785L8.0606 21.0756L8.05771 21.0713L8.04328 21.0641L8.02885 21.0569L8.02598 21.0525L8.02164 21.0497L8.01731 21.0468L8.01443 21.0425L8.01156 21.0381L8.00721 21.0353H8V21.0064L8.01443 21.0093L8.02885 21.0136L8.09378 21.0208C8.13706 21.0256 8.25489 21.0329 8.44725 21.0425C8.63962 21.0521 8.844 21.0521 9.06041 21.0425C9.27683 21.0329 9.49806 21.0112 9.72408 20.9776C9.95011 20.944 10.217 20.8864 10.5248 20.8047C10.8326 20.7231 11.1154 20.6261 11.3731 20.5137C11.63 20.4004 11.8127 20.3158 11.9214 20.2601C12.0291 20.2054 12.1936 20.1036 12.4148 19.9547L12.7466 19.7314L12.7495 19.7271L12.7538 19.7242L12.7582 19.7213L12.761 19.717L12.7639 19.7127L12.7683 19.7098L12.7726 19.7069L12.7755 19.7026L12.7899 19.6982L12.8043 19.6954L12.8072 19.681L12.8115 19.6665L12.8159 19.6637L12.8188 19.6593L12.7033 19.6521C12.6264 19.6473 12.5518 19.6425 12.4797 19.6377C12.4076 19.6329 12.2946 19.6113 12.1407 19.5729C11.9868 19.5345 11.8209 19.4768 11.6429 19.4C11.465 19.3232 11.2919 19.2319 11.1235 19.1263C10.9552 19.0206 10.8335 18.9327 10.7585 18.8626C10.6845 18.7934 10.5883 18.6955 10.47 18.5687C10.3526 18.441 10.2507 18.3098 10.1641 18.1754C10.0775 18.0409 9.99483 17.8858 9.91597 17.71L9.79621 17.4478L9.789 17.4262L9.78179 17.4046L9.77746 17.3902L9.77457 17.3758L9.79621 17.3786L9.81785 17.383L9.97656 17.4046C10.0824 17.419 10.2483 17.4238 10.4743 17.419C10.7003 17.4142 10.8566 17.4046 10.9432 17.3902C11.0298 17.3758 11.0827 17.3661 11.1019 17.3614L11.1307 17.3541L11.1668 17.3469L11.2029 17.3397L11.2058 17.3354L11.2101 17.3325L11.2144 17.3297L11.2173 17.3253L11.1885 17.3181L11.1596 17.3109L11.1307 17.3037L11.1019 17.2965L11.073 17.2893C11.0538 17.2845 11.0201 17.2749 10.972 17.2605C10.924 17.2461 10.7941 17.1933 10.5825 17.102C10.3709 17.0108 10.2026 16.9219 10.0775 16.8355C9.9522 16.7488 9.83267 16.654 9.71975 16.5517C9.60721 16.4479 9.48363 16.3144 9.34896 16.1511C9.21431 15.9878 9.09409 15.7981 8.98828 15.582C8.88248 15.3659 8.80313 15.1594 8.75023 14.9625C8.69753 14.7668 8.66277 14.5666 8.64636 14.3646L8.62038 14.062L8.63481 14.0649L8.64923 14.0692L8.66366 14.0764L8.67809 14.0837L8.69252 14.0909L8.70694 14.0981L8.93057 14.1989C9.07966 14.2661 9.26481 14.3238 9.48602 14.3718C9.70725 14.4198 9.8395 14.4462 9.88278 14.451L9.9477 14.4582H10.0775L10.0747 14.4539L10.0703 14.451L10.066 14.4482L10.0631 14.4438L10.0602 14.4395L10.0559 14.4366L10.0516 14.4338L10.0487 14.4294L10.0343 14.4222L10.0198 14.415L10.017 14.4107L10.0126 14.4078L10.0083 14.4049L10.0054 14.4006L9.99098 14.3934L9.97656 14.3862L9.97368 14.3819C9.9708 14.38 9.92944 14.3492 9.84959 14.2897C9.77072 14.2292 9.68801 14.1509 9.60144 14.0548C9.51488 13.9588 9.42831 13.8579 9.34175 13.7523C9.25503 13.6464 9.17778 13.5331 9.11091 13.4137C9.04359 13.2936 8.97241 13.1409 8.89739 12.9555C8.82333 12.7711 8.76706 12.5853 8.72858 12.398C8.69012 12.2107 8.66848 12.0258 8.66366 11.8433C8.65886 11.6608 8.66366 11.5047 8.67809 11.375C8.69252 11.2454 8.72137 11.0989 8.76465 10.9356C8.80794 10.7723 8.87046 10.5994 8.95221 10.4169L9.07484 10.1432L9.08206 10.1216L9.08927 10.1L9.09361 10.0971L9.09648 10.0928L9.09937 10.0885L9.1037 10.0856L9.10804 10.0885L9.11091 10.0928L9.1138 10.0971L9.11812 10.1L9.12247 10.1029L9.12534 10.1072L9.12822 10.1115L9.13255 10.1144L9.13977 10.1288L9.14698 10.1432L9.15132 10.1461L9.15419 10.1504L9.34896 10.3665C9.47881 10.5106 9.63271 10.6715 9.81064 10.8492C9.98859 11.0269 10.0872 11.1191 10.1064 11.1258C10.1256 11.1335 10.1497 11.1556 10.1785 11.1921C10.2074 11.2276 10.3036 11.3126 10.4671 11.4471C10.6306 11.5815 10.8446 11.7376 11.1091 11.9153C11.3736 12.093 11.667 12.2683 11.9892 12.4412C12.3114 12.6141 12.6577 12.7702 13.028 12.9094C13.3983 13.0487 13.658 13.14 13.807 13.1832C13.9561 13.2264 14.211 13.2816 14.5717 13.3489C14.9324 13.4161 15.2041 13.4593 15.3868 13.4785C15.5696 13.4977 15.6946 13.5088 15.7619 13.5117L15.8629 13.5146L15.8601 13.4929L15.8557 13.4713L15.8269 13.2912C15.8076 13.1712 15.798 13.0031 15.798 12.787C15.798 12.5709 15.8149 12.3716 15.8485 12.1891C15.8822 12.0066 15.9327 11.8217 16 11.6344C16.0673 11.4471 16.1332 11.2968 16.1977 11.1834C16.2631 11.071 16.3487 10.9428 16.4545 10.7987C16.5603 10.6547 16.6973 10.5058 16.8656 10.3521C17.034 10.1984 17.2263 10.0616 17.4427 9.9415C17.6592 9.82144 17.8587 9.73019 18.0415 9.66776C18.2242 9.60533 18.3781 9.5645 18.5032 9.5453C18.6282 9.52609 18.6907 9.51504 18.6907 9.51216V9.51216Z" fill="#1BA4FF"/>
</svg>
