<svg width="1002" height="902" viewBox="0 0 1002 902" fill="none" xmlns="http://www.w3.org/2000/svg">
<path d="M884.26 286.636C847.161 451.962 1017.42 573.549 971.99 643.927C930.769 707.825 793.663 608.108 604.403 655.447C386.557 709.985 349.637 912.66 181.077 900.96C113.869 896.28 36.1754 861.181 6.96199 799.353C-32.1983 716.645 131.074 564.369 131.074 423.793C131.074 279.166 0.599571 161.809 74.2604 77.2115C114.048 31.4927 179.106 18.983 270.062 14.0331C556.013 -1.35646 975.485 -24.0359 999.86 93.9511C1012.23 152.72 910.427 170.269 884.26 286.636Z" stroke="url(#paint0_linear_226_53)" stroke-opacity="0.5" stroke-width="1.04314" stroke-miterlimit="10"/>
<path d="M983.996 102.501C995.555 158.839 894.922 176.749 867.948 285.106C867.5 287.086 867.052 289.066 866.604 291.136C832.104 452.142 1006.22 570.399 962.399 639.787C923.149 701.885 789.717 606.308 603.236 653.466C392.738 706.475 354.205 900.96 190.394 890.16C134.298 886.47 70.6733 861.361 35.3663 816.812C29.5415 809.432 24.5232 801.603 20.3115 793.053C-18.9384 713.315 135.552 564.099 136.179 425.772C136.627 285.016 13.5906 170.089 86.0865 87.3811C124.978 42.9223 187.975 30.3226 275.794 25.1927C553.859 8.09316 960.607 -11.1663 983.996 102.501Z" stroke="url(#paint1_linear_226_53)" stroke-opacity="0.5" stroke-width="1.04314" stroke-miterlimit="10"/>
<path d="M968.048 111.05C979.249 166.039 875.658 183.768 850.208 289.606C849.76 291.586 849.312 293.566 848.954 295.546C817.142 452.321 995.11 567.249 952.903 635.647C915.625 696.035 785.867 604.418 602.073 651.576C398.834 702.965 358.599 889.26 199.538 879.36C144.875 876.031 83.1322 852.271 48.4525 809.522C42.807 802.502 37.7887 794.943 33.577 786.753C-5.85218 710.075 139.856 563.739 141.111 427.752C142.007 290.866 26.408 178.459 97.7389 97.5507C135.734 54.3518 196.76 41.9321 281.443 36.2622C551.622 18.3527 945.645 1.70316 968.048 111.05Z" stroke="url(#paint2_linear_226_53)" stroke-opacity="0.5" stroke-width="1.04314" stroke-miterlimit="10"/>
<path d="M952.098 119.601C962.851 173.239 856.572 190.879 832.377 294.196C831.929 296.176 831.57 298.156 831.122 300.136C801.909 452.502 983.82 564.189 943.137 631.598C907.83 690.186 781.746 603.158 600.641 649.687C405.108 699.906 363.08 877.561 208.679 868.651C155.54 865.591 95.4998 843.182 61.5369 802.323C55.981 795.663 51.0524 788.463 46.8406 780.544C7.14263 706.926 144.428 563.559 146.041 429.823C147.654 296.806 39.2236 186.829 109.3 107.811C146.399 65.8722 205.453 53.4525 286.91 47.5127C549.473 28.1632 930.681 14.4835 952.098 119.601Z" stroke="url(#paint3_linear_226_53)" stroke-opacity="0.5" stroke-width="1.04314" stroke-miterlimit="10"/>
<path d="M936.056 128.151C946.541 180.349 837.394 197.989 814.543 298.696C814.095 300.676 813.736 302.656 813.378 304.636C786.674 452.682 972.528 561.039 933.547 627.548C900.212 684.336 777.802 601.538 599.385 647.797C411.201 696.576 367.47 865.951 217.819 857.852C166.202 855.152 107.955 834.002 74.5297 795.033C69.153 788.733 64.2243 781.894 60.0126 774.244C20.225 703.686 148.818 563.289 150.968 431.893C153.03 302.746 52.0371 195.199 120.949 118.161C157.152 77.4819 214.234 65.1522 292.465 58.7624C547.231 38.0629 915.894 27.3532 936.056 128.151Z" stroke="url(#paint4_linear_226_53)" stroke-opacity="0.5" stroke-width="1.04314" stroke-miterlimit="10"/>
<path d="M920.104 136.7C930.23 187.459 818.305 205.098 796.798 303.286C796.35 305.176 796.082 307.156 795.723 309.135C771.528 452.862 961.415 557.889 923.957 623.497C892.593 678.486 773.947 599.918 598.219 645.907C417.383 693.156 372.039 854.251 227.047 847.142C176.954 844.712 120.499 824.912 87.7012 787.743C82.4141 781.803 77.575 775.233 73.2737 767.944C33.3069 700.355 153.207 562.929 155.896 433.782C158.494 308.415 64.8502 203.478 132.507 128.24C167.724 88.8212 222.836 76.4915 298.02 69.8317C545.079 47.8722 900.927 40.1324 920.104 136.7Z" stroke="url(#paint5_linear_226_53)" stroke-opacity="0.5" stroke-width="1.04314" stroke-miterlimit="10"/>
<path d="M904.154 145.25C913.833 194.658 799.219 212.298 779.057 307.785C778.608 309.675 778.34 311.655 778.071 313.635C756.295 452.952 950.215 554.739 914.46 619.357C884.978 672.636 770.006 598.298 597.055 643.927C423.657 689.736 376.61 842.552 236.279 836.252C187.709 834.182 133.046 815.732 100.875 780.453C95.7674 774.873 91.018 768.664 86.627 761.644C46.5706 697.115 157.689 562.569 160.915 435.852C164.052 314.355 77.7555 211.848 144.247 138.5C178.569 100.341 231.708 88.0112 303.667 80.9913C542.84 57.6819 886.053 53.0021 904.154 145.25Z" stroke="url(#paint6_linear_226_53)" stroke-opacity="0.5" stroke-width="1.04314" stroke-miterlimit="10"/>
<path d="M888.115 153.799C897.434 201.768 780.132 219.408 761.224 312.375C760.866 314.265 760.597 316.245 760.328 318.135C740.972 453.042 939.014 551.589 904.782 615.307C877.182 666.696 765.974 596.678 595.712 642.037C429.751 686.316 381.092 830.852 245.42 825.542C198.373 823.832 145.503 806.643 113.87 773.253C108.941 768.034 104.192 762.184 99.801 755.434C59.6546 693.965 161.991 562.479 165.844 437.922C169.429 320.295 90.6602 220.398 155.898 148.85C189.412 112.041 240.491 99.621 309.223 92.2411C540.69 67.4917 871.088 65.8718 888.115 153.799Z" stroke="url(#paint7_linear_226_53)" stroke-opacity="0.5" stroke-width="1.04314" stroke-miterlimit="10"/>
<path d="M872.162 162.35C881.123 208.968 761.044 226.518 743.39 316.876C743.032 318.766 742.763 320.746 742.584 322.635C725.557 453.132 927.721 548.35 895.192 611.168C869.474 660.757 762.029 594.968 594.545 640.147C435.932 682.896 385.571 819.153 254.648 814.743C209.036 813.303 158.136 797.463 127.041 765.964C122.202 761.104 117.542 755.524 113.151 749.134C72.8258 690.636 166.47 562.119 170.861 439.902C174.893 326.145 103.652 228.678 167.545 159.02C200.164 123.471 249.271 111.051 314.867 103.401C538.538 77.2118 856.122 78.6518 872.162 162.35Z" stroke="url(#paint8_linear_226_53)" stroke-opacity="0.5" stroke-width="1.04314" stroke-miterlimit="10"/>
<path d="M856.212 170.899C864.725 216.168 742.047 233.628 725.648 321.375C725.289 323.265 725.11 325.155 724.841 327.135C710.145 453.222 916.431 545.2 885.605 607.118C861.768 654.907 758.087 593.258 593.291 638.257C442.027 679.476 390.052 807.543 263.789 804.033C219.7 802.953 170.593 788.373 140.125 758.764C135.465 754.264 130.895 749.044 126.414 742.924C85.91 687.396 170.862 561.849 175.791 441.972C180.361 331.995 116.468 237.138 179.196 169.279C210.918 135.08 257.964 122.57 320.424 114.561C536.298 86.9314 841.157 91.5213 856.212 170.899Z" stroke="url(#paint9_linear_226_53)" stroke-opacity="0.5" stroke-width="1.04314" stroke-miterlimit="10"/>
<path d="M840.259 179.449C848.414 223.278 723.047 240.827 707.903 325.965C707.544 327.855 707.455 329.745 707.186 331.635C694.73 453.312 905.228 541.96 876.014 602.978C854.059 648.877 754.142 591.548 592.035 636.277C448.119 675.966 394.531 795.843 272.928 793.233C230.362 792.423 183.137 779.283 153.117 751.474C148.636 747.334 144.066 742.474 139.586 736.624C98.991 684.156 175.161 561.579 180.628 443.952C185.646 337.845 129.191 245.417 190.754 179.539C221.491 146.6 266.655 134.09 325.888 125.81C534.146 96.651 826.19 104.391 840.259 179.449Z" stroke="url(#paint10_linear_226_53)" stroke-opacity="0.5" stroke-width="1.04314" stroke-miterlimit="10"/>
<path d="M824.22 187.999C832.016 230.478 704.051 247.937 690.071 330.465C689.713 332.355 689.623 334.245 689.444 336.135C679.139 453.312 893.848 538.72 866.427 598.928C846.354 642.937 750.201 589.928 590.782 634.387C454.303 672.456 399.012 784.143 282.159 782.433C241.117 781.983 195.684 770.104 166.291 744.184C161.9 740.314 157.419 735.814 152.939 730.325C112.255 680.826 179.553 561.219 185.647 445.932C191.113 343.695 142.096 253.787 202.404 189.709C232.245 158.029 275.438 145.43 331.535 136.88C531.996 106.281 811.226 117.17 824.22 187.999Z" stroke="url(#paint11_linear_226_53)" stroke-opacity="0.5" stroke-width="1.04314" stroke-miterlimit="10"/>
<path d="M808.269 196.549C815.617 237.588 685.053 255.047 672.238 335.055C671.969 336.945 671.88 338.835 671.7 340.635C663.546 453.402 882.467 535.48 856.749 594.878C838.468 636.997 746.168 588.219 589.527 632.497C460.396 669.036 403.493 772.444 291.299 771.724C251.78 771.544 208.229 761.014 179.374 736.985C175.162 733.475 170.681 729.335 166.201 724.115C125.428 677.586 183.944 561.039 190.665 448.002C196.49 349.635 154.999 262.157 214.143 199.969C243.088 169.549 284.309 156.95 337.18 148.04C529.845 115.911 796.261 130.04 808.269 196.549Z" stroke="url(#paint12_linear_226_53)" stroke-opacity="0.5" stroke-width="1.04314" stroke-miterlimit="10"/>
<path d="M792.317 205.098C799.307 244.787 666.144 262.247 654.495 339.555C654.226 341.444 654.136 343.244 654.046 345.134C647.953 453.492 871.176 532.33 847.16 590.828C830.671 631.057 742.224 586.508 588.272 630.607C466.489 665.526 407.973 760.744 300.439 760.924C262.443 761.104 220.774 751.744 192.367 729.694C188.335 726.545 183.944 722.765 179.284 717.815C138.421 674.346 188.066 560.769 195.414 449.982C201.687 355.484 167.634 270.436 225.523 210.228C253.572 181.069 292.822 168.379 342.467 159.289C527.694 125.45 781.295 142.91 792.317 205.098Z" stroke="url(#paint13_linear_226_53)" stroke-opacity="0.5" stroke-width="1.04314" stroke-miterlimit="10"/>
<path d="M776.278 213.648C782.82 251.897 647.148 269.357 636.663 344.145C636.394 345.945 636.394 347.835 636.305 349.725C632.272 453.582 859.796 529 837.572 586.778C822.876 625.117 738.193 584.798 587.018 628.717C472.584 662.016 412.455 749.134 309.67 750.124C273.198 750.664 233.41 742.564 205.541 722.405C201.688 719.615 197.297 716.105 192.637 711.515C151.685 671.016 192.458 560.409 200.433 451.962C207.154 361.244 180.54 278.806 237.264 220.398C264.416 192.499 301.605 179.719 348.113 170.359C525.455 134.99 766.331 155.78 776.278 213.648Z" stroke="url(#paint14_linear_226_53)" stroke-opacity="0.5" stroke-width="1.04314" stroke-miterlimit="10"/>
<path d="M760.327 222.288C766.51 259.187 628.239 276.647 618.92 348.735C618.651 350.535 618.651 352.425 618.651 354.225C616.5 453.582 848.415 525.76 828.073 582.639C815.08 618.998 734.34 582.999 585.943 626.828C478.767 658.417 416.935 737.435 318.9 739.415C283.862 740.225 246.135 733.475 218.624 715.205C214.861 712.775 210.649 709.625 205.9 705.305C164.947 667.776 196.759 560.229 205.451 454.032C212.531 367.184 193.444 287.176 249.003 230.658C275.169 204.018 310.476 191.059 353.848 181.609C523.304 144.35 751.366 168.559 760.327 222.288Z" stroke="url(#paint15_linear_226_53)" stroke-opacity="0.5" stroke-width="1.04314" stroke-miterlimit="10"/>
<path d="M744.376 230.837C750.111 266.386 609.421 283.756 601.176 353.324C600.997 355.124 600.907 357.014 600.907 358.814C600.639 453.761 836.855 522.519 818.395 578.678C807.104 613.147 730.217 581.288 584.598 625.027C484.86 654.816 421.415 725.734 328.04 728.614C294.525 729.784 258.77 724.204 231.707 707.915C228.123 705.755 223.911 703.055 219.162 699.005C178.119 664.446 201.06 559.869 210.38 456.101C217.817 373.123 206.258 295.545 260.562 240.917C285.922 215.627 319.258 202.578 359.404 192.858C521.063 153.709 736.311 181.428 744.376 230.837Z" stroke="url(#paint16_linear_226_53)" stroke-opacity="0.5" stroke-width="1.04314" stroke-miterlimit="10"/>
<path d="M728.334 239.387C733.711 273.496 590.422 290.956 583.253 357.824C583.074 359.624 583.074 361.424 583.074 363.224C584.687 453.671 825.205 519.1 808.716 574.448C799.038 606.937 726.184 579.308 583.253 622.957C490.953 651.216 425.895 714.035 337.269 717.814C305.278 719.254 271.494 714.845 244.879 700.625C241.474 698.825 237.262 696.395 232.513 692.705C191.471 661.026 205.361 559.599 215.397 458.081C223.193 378.973 219.161 303.825 272.301 251.177C296.675 227.057 327.949 213.828 364.959 203.928C518.822 162.979 721.345 194.298 728.334 239.387Z" stroke="url(#paint17_linear_226_53)" stroke-opacity="0.5" stroke-width="1.04314" stroke-miterlimit="10"/>
<path d="M712.386 247.937C717.314 280.696 571.695 298.156 565.512 362.414C565.333 364.214 565.333 366.014 565.423 367.814C568.738 453.852 813.557 515.77 799.13 570.489C791.065 600.998 722.153 577.508 582.001 621.157C496.959 647.617 430.288 702.425 346.322 707.105C315.854 708.905 284.042 705.575 257.786 693.515C254.56 691.985 250.438 690.005 245.599 686.586C204.556 657.876 209.395 559.419 220.149 460.241C228.303 384.913 231.709 312.285 283.773 261.527C307.162 238.667 336.554 225.257 370.428 215.268C516.584 172.069 706.292 207.168 712.386 247.937Z" stroke="url(#paint18_linear_226_53)" stroke-opacity="0.5" stroke-width="1.04314" stroke-miterlimit="10"/>
<path d="M696.434 256.487C700.915 287.896 552.876 305.266 547.769 366.914C547.589 368.714 547.679 370.514 547.769 372.314C552.787 453.942 801.907 512.44 789.63 566.439C783.178 595.058 718.21 575.529 580.925 619.268C503.232 644.017 434.947 690.816 355.641 696.396C326.697 698.465 296.856 696.306 271.048 686.316C268.001 685.146 263.879 683.436 259.04 680.376C217.908 654.547 213.786 559.149 225.346 462.312C233.859 390.853 244.702 320.565 295.601 271.787C318.094 250.097 345.425 236.507 376.162 226.428C514.164 180.979 691.237 220.038 696.434 256.487Z" stroke="url(#paint19_linear_226_53)" stroke-opacity="0.5" stroke-width="1.04314" stroke-miterlimit="10"/>
<path d="M680.394 265.036C684.336 295.006 533.968 312.465 529.936 371.414C529.846 373.214 529.846 375.014 530.025 376.723C536.656 453.941 789.989 508.93 779.952 562.209C774.934 588.848 714.088 573.368 579.58 617.197C509.146 640.147 439.338 678.936 364.692 685.505C337.27 687.935 309.491 686.675 284.041 678.936C281.173 678.036 277.051 676.776 272.212 673.986C231.081 651.036 217.908 558.789 230.184 464.201C238.966 396.613 257.426 328.755 307.161 281.956C328.668 261.616 354.028 247.757 381.628 237.587C511.744 189.618 676.182 232.907 680.394 265.036Z" stroke="url(#paint20_linear_226_53)" stroke-opacity="0.5" stroke-width="1.04314" stroke-miterlimit="10"/>
<path d="M512.192 376.003C508.07 451.691 778.07 504.43 770.453 558.249C766.958 582.998 710.054 571.298 578.415 615.397C491.85 644.376 389.782 691.625 297.213 671.736C294.525 671.196 290.493 670.206 285.564 667.776C215.936 633.757 200.254 402.193 318.899 292.216C442.026 178.099 660.499 240.197 664.532 273.586C667.937 302.205 515.239 319.575 512.192 376.003Z" stroke="url(#paint21_linear_226_53)" stroke-opacity="0.5" stroke-width="1.04314" stroke-miterlimit="10"/>
<defs>
<linearGradient id="paint0_linear_226_53" x1="245.978" y1="622.537" x2="700.542" y2="326.22" gradientUnits="userSpaceOnUse">
<stop stop-color="#FF51D7"/>
<stop offset="0.5" stop-color="#C300FF"/>
<stop offset="1" stop-color="#00F3FF"/>
</linearGradient>
<linearGradient id="paint1_linear_226_53" x1="245.978" y1="622.537" x2="700.542" y2="326.22" gradientUnits="userSpaceOnUse">
<stop stop-color="#FF51D7"/>
<stop offset="0.5" stop-color="#C300FF"/>
<stop offset="1" stop-color="#00F3FF"/>
</linearGradient>
<linearGradient id="paint2_linear_226_53" x1="245.978" y1="622.537" x2="700.542" y2="326.22" gradientUnits="userSpaceOnUse">
<stop stop-color="#FF51D7"/>
<stop offset="0.5" stop-color="#C300FF"/>
<stop offset="1" stop-color="#00F3FF"/>
</linearGradient>
<linearGradient id="paint3_linear_226_53" x1="245.978" y1="622.537" x2="700.542" y2="326.22" gradientUnits="userSpaceOnUse">
<stop stop-color="#FF51D7"/>
<stop offset="0.5" stop-color="#C300FF"/>
<stop offset="1" stop-color="#00F3FF"/>
</linearGradient>
<linearGradient id="paint4_linear_226_53" x1="245.978" y1="622.537" x2="700.542" y2="326.22" gradientUnits="userSpaceOnUse">
<stop stop-color="#FF51D7"/>
<stop offset="0.5" stop-color="#C300FF"/>
<stop offset="1" stop-color="#00F3FF"/>
</linearGradient>
<linearGradient id="paint5_linear_226_53" x1="245.978" y1="622.537" x2="700.542" y2="326.22" gradientUnits="userSpaceOnUse">
<stop stop-color="#FF51D7"/>
<stop offset="0.5" stop-color="#C300FF"/>
<stop offset="1" stop-color="#00F3FF"/>
</linearGradient>
<linearGradient id="paint6_linear_226_53" x1="245.978" y1="622.537" x2="700.542" y2="326.22" gradientUnits="userSpaceOnUse">
<stop stop-color="#FF51D7"/>
<stop offset="0.5" stop-color="#C300FF"/>
<stop offset="1" stop-color="#00F3FF"/>
</linearGradient>
<linearGradient id="paint7_linear_226_53" x1="245.978" y1="622.537" x2="700.542" y2="326.22" gradientUnits="userSpaceOnUse">
<stop stop-color="#FF51D7"/>
<stop offset="0.5" stop-color="#C300FF"/>
<stop offset="1" stop-color="#00F3FF"/>
</linearGradient>
<linearGradient id="paint8_linear_226_53" x1="245.978" y1="622.537" x2="700.542" y2="326.22" gradientUnits="userSpaceOnUse">
<stop stop-color="#FF51D7"/>
<stop offset="0.5" stop-color="#C300FF"/>
<stop offset="1" stop-color="#00F3FF"/>
</linearGradient>
<linearGradient id="paint9_linear_226_53" x1="245.978" y1="622.537" x2="700.542" y2="326.22" gradientUnits="userSpaceOnUse">
<stop stop-color="#FF51D7"/>
<stop offset="0.5" stop-color="#C300FF"/>
<stop offset="1" stop-color="#00F3FF"/>
</linearGradient>
<linearGradient id="paint10_linear_226_53" x1="245.978" y1="622.537" x2="700.542" y2="326.22" gradientUnits="userSpaceOnUse">
<stop stop-color="#FF51D7"/>
<stop offset="0.5" stop-color="#C300FF"/>
<stop offset="1" stop-color="#00F3FF"/>
</linearGradient>
<linearGradient id="paint11_linear_226_53" x1="245.978" y1="622.537" x2="700.542" y2="326.22" gradientUnits="userSpaceOnUse">
<stop stop-color="#FF51D7"/>
<stop offset="0.5" stop-color="#C300FF"/>
<stop offset="1" stop-color="#00F3FF"/>
</linearGradient>
<linearGradient id="paint12_linear_226_53" x1="245.978" y1="622.537" x2="700.542" y2="326.22" gradientUnits="userSpaceOnUse">
<stop stop-color="#FF51D7"/>
<stop offset="0.5" stop-color="#C300FF"/>
<stop offset="1" stop-color="#00F3FF"/>
</linearGradient>
<linearGradient id="paint13_linear_226_53" x1="245.978" y1="622.537" x2="700.542" y2="326.22" gradientUnits="userSpaceOnUse">
<stop stop-color="#FF51D7"/>
<stop offset="0.5" stop-color="#C300FF"/>
<stop offset="1" stop-color="#00F3FF"/>
</linearGradient>
<linearGradient id="paint14_linear_226_53" x1="245.978" y1="622.537" x2="700.542" y2="326.22" gradientUnits="userSpaceOnUse">
<stop stop-color="#FF51D7"/>
<stop offset="0.5" stop-color="#C300FF"/>
<stop offset="1" stop-color="#00F3FF"/>
</linearGradient>
<linearGradient id="paint15_linear_226_53" x1="245.978" y1="622.537" x2="700.542" y2="326.22" gradientUnits="userSpaceOnUse">
<stop stop-color="#FF51D7"/>
<stop offset="0.5" stop-color="#C300FF"/>
<stop offset="1" stop-color="#00F3FF"/>
</linearGradient>
<linearGradient id="paint16_linear_226_53" x1="245.978" y1="622.537" x2="700.542" y2="326.22" gradientUnits="userSpaceOnUse">
<stop stop-color="#FF51D7"/>
<stop offset="0.5" stop-color="#C300FF"/>
<stop offset="1" stop-color="#00F3FF"/>
</linearGradient>
<linearGradient id="paint17_linear_226_53" x1="245.978" y1="622.537" x2="700.542" y2="326.22" gradientUnits="userSpaceOnUse">
<stop stop-color="#FF51D7"/>
<stop offset="0.5" stop-color="#C300FF"/>
<stop offset="1" stop-color="#00F3FF"/>
</linearGradient>
<linearGradient id="paint18_linear_226_53" x1="245.978" y1="622.537" x2="700.542" y2="326.22" gradientUnits="userSpaceOnUse">
<stop stop-color="#FF51D7"/>
<stop offset="0.5" stop-color="#C300FF"/>
<stop offset="1" stop-color="#00F3FF"/>
</linearGradient>
<linearGradient id="paint19_linear_226_53" x1="245.978" y1="622.537" x2="700.542" y2="326.22" gradientUnits="userSpaceOnUse">
<stop stop-color="#FF51D7"/>
<stop offset="0.5" stop-color="#C300FF"/>
<stop offset="1" stop-color="#00F3FF"/>
</linearGradient>
<linearGradient id="paint20_linear_226_53" x1="245.978" y1="622.537" x2="700.542" y2="326.22" gradientUnits="userSpaceOnUse">
<stop stop-color="#FF51D7"/>
<stop offset="0.5" stop-color="#C300FF"/>
<stop offset="1" stop-color="#00F3FF"/>
</linearGradient>
<linearGradient id="paint21_linear_226_53" x1="245.978" y1="622.537" x2="700.542" y2="326.22" gradientUnits="userSpaceOnUse">
<stop stop-color="#FF51D7"/>
<stop offset="0.5" stop-color="#C300FF"/>
<stop offset="1" stop-color="#00F3FF"/>
</linearGradient>
</defs>
</svg>
